<svg width="28" height="22" fill="none" xmlns="http://www.w3.org/2000/svg"><path d="M19.969 9.771c-.278-2.765-2.438-4.77-5.142-4.77-1.802 0-3.451.877-4.38 2.285C9.527 5.86 7.947 5 6.173 5 3.47 5 1.31 7.006 1.032 9.77c-.022.123-.112.766.161 1.814.394 1.511 1.304 2.887 2.63 3.976l6.62 5.44 6.733-5.44c1.327-1.09 2.237-2.464 2.63-3.976.274-1.048.184-1.69.163-1.813Zm-.874 1.661c-.36 1.38-1.193 2.639-2.408 3.636l-6.24 5.042-6.132-5.041c-1.217-.999-2.05-2.256-2.41-3.637-.259-.992-.153-1.552-.152-1.556l.005-.033c.238-2.423 2.094-4.181 4.415-4.181 1.713 0 3.22.953 3.936 2.487l.337.723.336-.723c.704-1.51 2.292-2.487 4.045-2.487 2.32 0 4.178 1.759 4.42 4.212 0 .006.107.566-.152 1.558Z" fill="#1B1A17" stroke="#1B1A17" stroke-width=".75"/><circle cx="21.5" cy="6.5" fill="#E6C8B4" r="6.5"/><path d="M22.102 9h-.727V4.184l-1.457.535v-.657l2.07-.777h.114V9Z" fill="#1B1A17"/><path d="M22.102 9v1h1V9h-1Zm-.727 0h-1v1h1V9Zm0-4.816h1V2.75l-1.345.494.345.939Zm-1.457.535h-1V6.15l1.345-.494-.345-.938Zm0-.657-.351-.936-.649.244v.692h1Zm2.07-.777v-1h-.181l-.17.064.351.936Zm.114 0h1v-1h-1v1Zm0 4.715h-.727v2h.727V8Zm.273 1V4.184h-2V9h2ZM21.03 3.245l-1.457.535.69 1.877 1.457-.535-.69-1.877Zm-.112 1.474v-.657h-2v.657h2Zm-.648.28 2.07-.778-.703-1.872-2.07.777L20.27 5Zm1.718-.714h.114v-2h-.114v2Zm-.886-1V9h2V3.285h-2Z" fill="#1B1A17"/></svg>